<?xml version="1.0" encoding="UTF-8"?><svg id="a" xmlns="http://www.w3.org/2000/svg" xmlns:xlink="http://www.w3.org/1999/xlink" viewBox="0 0 576.98 269.3"><defs><style>.c{letter-spacing:0em;}.d{fill:#000202;font-family:MyriadPro-Regular, Myriad Pro;font-size:70.4px;}.e{fill:url(#b);}.f{letter-spacing:-.01em;}.g{letter-spacing:0em;}.h{letter-spacing:0em;}.i{letter-spacing:0em;}.j{letter-spacing:0em;}</style><linearGradient id="b" x1="0" y1="89.38" x2="576.97" y2="89.38" gradientTransform="matrix(1, 0, 0, 1, 0, 0)" gradientUnits="userSpaceOnUse"><stop offset=".17" stop-color="#7c78b8"/><stop offset=".42" stop-color="#08adb0"/><stop offset=".64" stop-color="#00b0b0"/><stop offset=".89" stop-color="#00f4b1"/></linearGradient></defs><path class="e" d="M421.89,1.96c-2.18-2.5-3.34-2.48-5.49-.03-20.01,22.89-40.17,45.62-60.18,68.52-2.05,2.35-3.09,2.08-5.02-.13-20.1-22.97-40.31-45.8-60.43-68.73-1.71-1.95-2.84-2.15-4.64-.09-19.36,22.11-61.48,69.75-63.38,71.82-9.98-11.44-50.9-58.13-61.69-70.27-3.65-4.11-3.74-4.04-7.33,.05C138.44,20.49,1.7,176.45,0,178.47c5.86,0,10.82,.01,15.86-.08,.77-.01,138.1-156.78,141.07-160.49,19.35,22.04,127.62,147.1,127.03,147.1-14.46,.02-28.93,.07-43.39-.09-1.38-.02-3.01-1.07-4.07-2.2-4-4.26-68.41-77.92-80.03-91.18-4.47-5.1-5.1-6.37-7.46-4-.86,.87-1.95,2.22-3.55,4.05-2.95,3.39-2.92,3.43-.05,6.69,28.66,32.57,57.34,65.13,85.96,97.75,1.62,1.84,3.24,2.71,5.54,2.71,24.81-.07,76.51,.06,78.45,.02-28.29-32.1-56.09-64.04-83.35-94.97,19.25-22.1,37.96-43.6,56.42-64.79,18.88,21.42,107.28,121.86,128.58,146.03-1.76,.01-25.36-.43-35.9,.09-7.78,.39-12.64-1.83-19.19-8.69-7.53-7.89-71.48-81.04-74.59-84.98-4.05-5.13-5.63-6.04-9.79-1.24-.59,.68-1.11,1.47-1.77,2.06-2.04,1.84-1.83,3.27-.03,5.47,5.03,6.15,80.36,91.89,86.66,98.4,1.39,1.44,3.69,2.43,5.58,2.44,24.62,.16,75.91,.15,78.13,.17-3.35-3.9-57.22-65.71-81.55-93.2-1.9-2.15-1.78-3.54,.07-5.57,5.99-6.59,40.92-46.29,52.44-59.5,1.67-1.91,2.82-1.96,4.37,.03,1.74,2.24,104.42,118.65,124.07,140.95,.76,.87,1.43,1.84,2.77,3.57h-4.34c-12.14,0-24.29-.21-36.42,.1-4.95,.13-8.47-1.25-12.12-5.53-15.19-17.81-30.9-35.05-46.36-52.57-10.83-12.27-21.55-24.66-32.33-36.99-4.16-4.75-5.01-3.63-8.4,.04s-3.71,5.56-2.16,7.3c10.85,12.26,68.87,78.31,87.17,98.9,1.12,1.26,3.03,2.29,4.58,2.3,24.92,.14,78.93,.19,79.07,.14S438.65,21.22,421.89,1.96Z"/><text class="d" transform="translate(0 251.7)"><tspan class="f" x="0" y="0">C</tspan><tspan x="40.06" y="0">o</tspan><tspan class="g" x="78.71" y="0">n</tspan><tspan class="h" x="117.49" y="0">t</tspan><tspan x="140.37" y="0">oso </tspan><tspan class="i" x="260.47" y="0">R</tspan><tspan x="298.63" y="0">eal Est</tspan><tspan class="c" x="485.18" y="0">a</tspan><tspan class="j" x="518.83" y="0">t</tspan><tspan x="541.71" y="0">e</tspan></text></svg>