<?xml version="1.0" encoding="UTF-8"?>
<svg id="a" xmlns="http://www.w3.org/2000/svg" xmlns:xlink="http://www.w3.org/1999/xlink" viewBox="0 0 774 239.79">
<defs>
  <style>.c{fill:url(#b);}</style>
  <linearGradient id="b" x1="0" y1="119.9" x2="774" y2="119.9" gradientTransform="matrix(1, 0, 0, 1, 0, 0)" gradientUnits="userSpaceOnUse"><stop offset=".17" stop-color="#7c78b8"/><stop offset=".42" stop-color="#08adb0"/><stop offset=".64" stop-color="#00b0b0"/><stop offset=".89" stop-color="#00f4b1"/>
  </linearGradient>
  </defs>
<path class="c" d="M565.95,2.63c-2.92-3.35-4.48-3.33-7.36-.04-26.85,30.71-53.88,61.2-80.73,91.91-2.75,3.15-4.14,2.79-6.73-.18-26.96-30.81-54.07-61.44-81.07-92.21-2.29-2.61-3.81-2.88-6.22-.12-25.97,29.65-82.47,93.57-85.02,96.35-13.39-15.35-68.28-77.98-82.76-94.27-4.89-5.51-5.01-5.41-9.83,.06C185.72,27.49,2.28,236.71,0,239.41c7.86,0,14.51,.01,21.28-.11,1.03-.02,185.26-210.32,189.24-215.29,25.95,29.56,171.2,197.34,170.41,197.34-19.4,.02-38.81,.1-58.21-.12-1.85-.02-4.04-1.44-5.46-2.95-5.36-5.71-91.77-104.52-107.36-122.32-5.99-6.84-6.85-8.55-10.01-5.36-1.16,1.16-2.62,2.98-4.76,5.43-3.96,4.54-3.92,4.6-.07,8.97,38.45,43.7,76.92,87.37,115.31,131.13,2.17,2.47,4.34,3.64,7.43,3.63,33.28-.09,102.63,.08,105.24,.03-37.95-43.06-75.24-85.91-111.81-127.4,25.82-29.65,50.93-58.49,75.69-86.92,25.33,28.73,143.91,163.48,172.49,195.89-2.36,.01-34.02-.58-48.15,.12-10.43,.52-16.95-2.45-25.74-11.66-10.11-10.58-95.88-108.71-100.06-114-5.44-6.89-7.55-8.1-13.14-1.66-.8,.92-1.49,1.97-2.37,2.76-2.74,2.47-2.46,4.39-.04,7.34,6.74,8.24,107.8,123.27,116.26,132,1.87,1.93,4.95,3.26,7.49,3.28,33.02,.21,101.84,.21,104.81,.23-4.5-5.23-76.76-88.16-109.39-125.03-2.55-2.88-2.38-4.74,.1-7.47,8.03-8.84,54.89-62.1,70.34-79.82,2.23-2.56,3.79-2.63,5.87,.04,2.34,3.01,140.08,159.16,166.44,189.09,1.02,1.16,1.92,2.47,3.72,4.79h-5.83c-16.29,0-32.58-.29-48.86,.14-6.64,.17-11.37-1.68-16.27-7.42-20.38-23.89-41.45-47.02-62.19-70.52-14.53-16.46-28.92-33.08-43.38-49.62-5.58-6.38-6.72-4.87-11.27,.06s-4.97,7.45-2.9,9.79c14.56,16.45,92.39,105.05,116.94,132.67,1.51,1.7,4.07,3.08,6.15,3.09,33.43,.19,105.89,.26,106.08,.19S588.44,28.47,565.95,2.63Z"/>
</svg>
